<?xml version="1.0" encoding="UTF-8" standalone="no"?>
<!-- Creator: CorelDRAW X7 -->

<svg
   xmlns:dc="http://purl.org/dc/elements/1.1/"
   xmlns:cc="http://creativecommons.org/ns#"
   xmlns:rdf="http://www.w3.org/1999/02/22-rdf-syntax-ns#"
   xmlns:svg="http://www.w3.org/2000/svg"
   xmlns="http://www.w3.org/2000/svg"
   xmlns:sodipodi="http://sodipodi.sourceforge.net/DTD/sodipodi-0.dtd"
   xmlns:inkscape="http://www.inkscape.org/namespaces/inkscape"
   xml:space="preserve"
   version="1.1"
   style="shape-rendering:geometricPrecision; text-rendering:geometricPrecision; image-rendering:optimizeQuality; fill-rule:evenodd; clip-rule:evenodd"
   viewBox="0 0 3366 4749"
   id="svg2"
   inkscape:version="0.48.5 r10040"
   width="100%"
   height="100%"
   sodipodi:docname="bike-marker.svg"
   inkscape:export-filename="/home/rodrigo/bici-tren/html/static/bike-marker.png"
   inkscape:export-xdpi="1.3265951"
   inkscape:export-ydpi="1.3265951"><sodipodi:namedview
     pagecolor="#ffffff"
     bordercolor="#666666"
     borderopacity="1"
     objecttolerance="10"
     gridtolerance="10"
     guidetolerance="10"
     inkscape:pageopacity="0"
     inkscape:pageshadow="2"
     inkscape:window-width="1278"
     inkscape:window-height="798"
     id="namedview50"
     showgrid="false"
     inkscape:zoom="0.049694673"
     inkscape:cx="1683"
     inkscape:cy="2374.5"
     inkscape:window-x="0"
     inkscape:window-y="0"
     inkscape:window-maximized="0"
     inkscape:current-layer="svg2" /><defs
     id="defs4"><style
       type="text/css"
       id="style6">
   
    .fil2 {fill:#E6E6E6}
    .fil1 {fill:white}
    .fil0 {fill:url(#id4)}
    .fil3 {fill:url(#id5)}
   
  </style><mask
       id="id0"><linearGradient
         id="id1"
         gradientUnits="userSpaceOnUse"
         x1="1680.31"
         y1="435.362"
         x2="1680.31"
         y2="1639.57"><stop
           offset="0"
           style="stop-opacity:1; stop-color:white"
           id="stop10" /><stop
           offset="1"
           style="stop-opacity:0; stop-color:white"
           id="stop12" /></linearGradient><rect
         style="fill:url(#id1)"
         x="74"
         y="63"
         width="3213"
         height="1950"
         id="rect14" /></mask><mask
       id="id2"><linearGradient
         id="id3"
         gradientUnits="userSpaceOnUse"
         x1="1683.09"
         y1="773.806"
         x2="1683.09"
         y2="1471.39"><stop
           offset="0"
           style="stop-opacity:1; stop-color:white"
           id="stop18" /><stop
           offset="1"
           style="stop-opacity:0; stop-color:white"
           id="stop20" /></linearGradient><rect
         style="fill:url(#id3)"
         x="861"
         y="556"
         width="1645"
         height="1133"
         id="rect22" /></mask><linearGradient
       id="id4"
       gradientUnits="userSpaceOnUse"
       x1="1723.29"
       y1="447.685"
       x2="1642.93"
       y2="4301.68"><stop
         offset="0"
         style="stop-opacity:1; stop-color:#73B4FA"
         id="stop25" /><stop
         offset="1"
         style="stop-opacity:1; stop-color:#58A2F0"
         id="stop27" /></linearGradient><linearGradient
       id="id5"
       gradientUnits="userSpaceOnUse"
       x1="486.006"
       y1="2331.72"
       x2="2880.19"
       y2="1010.44"><stop
         offset="0"
         style="stop-opacity:1; stop-color:#9CBDFF"
         id="stop30" /><stop
         offset="0.670588"
         style="stop-opacity:1; stop-color:#62A1F4"
         id="stop32" /><stop
         offset="1"
         style="stop-opacity:1; stop-color:#2785E9"
         id="stop34" /></linearGradient></defs><g
     id="Layer_x0020_1"><metadata
       id="CorelCorpID_0Corel-Layer" /><path
       class="fil0"
       d="M1683 4749c16,0 -1743,-2025 -1681,-3252 99,-1996 3263,-1996 3363,0 61,1227 -1698,3252 -1682,3252z"
       id="path38" /><path
       class="fil1"
       style="mask:url(#id0)"
       d="M88 1988c0,0 1606,-941 3140,21 562,-2380 -3382,-2785 -3140,-21z"
       id="path40"
       mask="url(#id0)" /><circle
       class="fil2"
       cx="1683"
       cy="1671"
       r="1167"
       id="circle42" /><path
       class="fil3"
       d="M1683 536c627,0 1135,508 1135,1135 0,627 -508,1135 -1135,1135 -627,0 -1135,-508 -1135,-1135 0,-627 508,-1135 1135,-1135zm0 -123c695,0 1258,563 1258,1258 0,695 -563,1258 -1258,1258 -695,0 -1258,-563 -1258,-1258 0,-695 563,-1258 1258,-1258z"
       id="path44" /><path
       class="fil1"
       style="mask:url(#id2)"
       d="M1683 560c452,0 819,252 819,563 0,310 -367,562 -819,562 -452,0 -818,-252 -818,-562 0,-311 366,-563 818,-563z"
       id="path46"
       mask="url(#id2)" /></g><metadata
     id="metadata48"><rdf:RDF><cc:Work><dc:format>image/svg+xml</dc:format><dc:type
           rdf:resource="http://purl.org/dc/dcmitype/StillImage" /><cc:license
           rdf:resource="http://creativecommons.org/licenses/publicdomain/" /><dc:publisher><cc:Agent
             rdf:about="http://openclipart.org/"><dc:title>Openclipart</dc:title></cc:Agent></dc:publisher><dc:title></dc:title></cc:Work><cc:License
         rdf:about="http://creativecommons.org/licenses/publicdomain/"><cc:permits
           rdf:resource="http://creativecommons.org/ns#Reproduction" /><cc:permits
           rdf:resource="http://creativecommons.org/ns#Distribution" /><cc:permits
           rdf:resource="http://creativecommons.org/ns#DerivativeWorks" /></cc:License></rdf:RDF></metadata><g
     transform="matrix(4.1387814,0,0,4.1387814,438.26755,870.28383)"
     inkscape:label="Calque 1"
     id="layer1"><path
       sodipodi:cx="178.57143"
       sodipodi:cy="549.50507"
       transform="matrix(0.9177,0,0,0.95696,286.68,-295.82)"
       d="m 282.85715,549.50507 c 0,55.22847 -46.69031,100 -104.28572,100 -57.59542,0 -104.285724,-44.77153 -104.285724,-100 0,-55.22848 46.690304,-100 104.285724,-100 57.59541,0 104.28572,44.77152 104.28572,100 z"
       sodipodi:type="arc"
       style="opacity:0.95583999;fill-opacity:0;stroke:#000000;stroke-width:11;stroke-opacity:0.97492"
       sodipodi:ry="100"
       sodipodi:rx="104.28572"
       id="path12868" /><path
       sodipodi:cx="178.57143"
       sodipodi:cy="549.50507"
       transform="matrix(0.9177,0,0,0.95696,-19.702,-298.08)"
       d="m 282.85715,549.50507 c 0,55.22847 -46.69031,100 -104.28572,100 -57.59542,0 -104.285724,-44.77153 -104.285724,-100 0,-55.22848 46.690304,-100 104.285724,-100 57.59541,0 104.28572,44.77152 104.28572,100 z"
       sodipodi:type="arc"
       style="opacity:0.95583999;fill-opacity:0;stroke:#000000;stroke-width:11;stroke-opacity:0.97492"
       sodipodi:ry="100"
       sodipodi:rx="104.28572"
       id="path7137" /><path
       sodipodi:cx="178.57143"
       sodipodi:cy="549.50507"
       transform="matrix(0.9372,0,0,0.97736,-23.143,-309.33)"
       d="m 282.85715,549.50507 c 0,55.22847 -46.69031,100 -104.28572,100 -57.59542,0 -104.285724,-44.77153 -104.285724,-100 0,-55.22848 46.690304,-100 104.285724,-100 57.59541,0 104.28572,44.77152 104.28572,100 z"
       sodipodi:type="arc"
       style="opacity:0.95583999;fill-opacity:0;stroke:#000000;stroke-width:11;stroke-opacity:0.97492;stroke-dasharray:22.00000095, 11.00000048"
       sodipodi:ry="100"
       sodipodi:rx="104.28572"
       id="path7139" /><path
       d="m 457.7,232.56 -132.45,3.4"
       style="fill:none;stroke:#000000;stroke-width:10.71100044"
       id="path4129"
       inkscape:connector-curvature="0" /><path
       d="M 327.3,238.68 178.22,106.75"
       style="fill:none;stroke:#000000;stroke-width:11.2510004"
       id="path6069"
       inkscape:connector-curvature="0" /><path
       d="M 183.46,88.582 358.62,100.81"
       style="fill:none;stroke:#000000;stroke-width:12.20600033"
       id="path7040"
       inkscape:connector-curvature="0" /><path
       d="m 153.3197,472.28254 -60.271081,-51.88262 52.645581,59.60581 -53.293213,-59.02748 44.759863,65.73404 -45.474872,-65.24144 36.168262,70.82561 -36.939373,-70.42651 27.006253,74.80021 -27.821304,-74.5009 17.418354,77.59517 -18.264491,-77.40037 7.555751,79.1664 -8.419631,-79.07919 -2.42601,79.48914 1.558012,-79.51089 L 75.152289,500.98781 86.663373,422.29915 64.545434,498.68767 85.828053,422.06223 54.310501,495.07629 85.029015,421.72247 44.6089,490.2106 84.27886,421.28525 35.593631,484.16735 83.589418,420.75746 27.406871,477.04183 82.971563,420.14742 20.177729,468.94643 82.435038,419.46475 14.020214,460.00882 81.988305,418.72022 9.0314338,450.36993 81.638408,417.92557 5.2900635,440.1818 81.390867,417.09334 2.8551071,429.60508 81.249584,416.23664 1.7649654,418.80658 81.216788,415.36899 2.0368305,407.9566 81.292996,414.50407 3.666415,397.22625 81.477007,413.65552 6.6280193,386.78475 81.765918,412.83672 10.874937,376.79677 82.155173,412.0606 16.340192,367.41984 82.638633,411.33937 22.937594,358.80182 83.208674,410.68443 30.563098,351.07862 83.856306,410.1061 39.096445,344.37206 84.571316,409.6135 48.403059,338.7879 l 36.939367,70.4265 -27.006257,-74.80021 27.821308,74.5009 -17.418353,-77.59517 18.264491,77.40037 -7.555751,-79.1664 8.419631,79.07919 2.42601,-79.48914 -1.558012,79.51089 L 101.105,330.09654 89.593921,408.7852 111.71186,332.39668 90.429241,409.02213 121.94679,336.00806 91.228279,409.36188 131.64839,340.87375 91.978434,409.7991 140.66366,346.91701 92.667876,410.32689 148.85042,354.04252 93.285731,410.93693 156.07956,362.13792 93.822256,411.6196 l 68.414824,-40.54406 -67.968091,41.28859 72.956871,-31.64971 -72.606974,32.44436 76.348344,-22.25623 -76.100803,23.08846 78.535763,-12.51174 -78.39448,13.36844 79.48462,-2.56994 -79.451824,3.43759 79.179954,7.41239 L 94.964297,416.58028 172.59088,433.8581 94.780287,417.42883 169.62927,444.2996 94.491376,418.24763 165.38236,454.28758 94.102121,419.02376 159.9171,463.66452 93.61866,419.74498 z"
       inkscape:flatsided="false"
       inkscape:rounded="0"
       sodipodi:cx="88.128647"
       sodipodi:cy="415.54218"
       inkscape:randomized="0"
       transform="matrix(1.0517,0,0,1.0889,357.79,-222.33)"
       sodipodi:arg2="0.77903374"
       sodipodi:arg1="0.71620188"
       sodipodi:r2="6.9140282"
       sodipodi:r1="86.425354"
       sodipodi:sides="50"
       sodipodi:type="star"
       style="fill:#000000;stroke-width:0"
       id="path9057" /><path
       d="M 454.59,232.67 C 447,213.84 359.06,102.77 359.06,102.77"
       style="fill:none;stroke:#000000;stroke-width:11.2130003"
       id="path8982"
       inkscape:connector-curvature="0" /><path
       sodipodi:cx="178.57143"
       sodipodi:cy="549.50507"
       transform="matrix(0.9372,0,0,0.97736,283.74,-307.23)"
       d="m 282.85715,549.50507 c 0,55.22847 -46.69031,100 -104.28572,100 -57.59542,0 -104.285724,-44.77153 -104.285724,-100 0,-55.22848 46.690304,-100 104.285724,-100 57.59541,0 104.28572,44.77152 104.28572,100 z"
       sodipodi:type="arc"
       style="opacity:0.95583999;fill:#000000;fill-opacity:0.00626963;stroke:#000000;stroke-width:11;stroke-opacity:0.97492;stroke-dasharray:22.00000095, 11.00000048"
       sodipodi:ry="100"
       sodipodi:rx="104.28572"
       id="path8110" /><path
       d="M 327.9,233.7 358.65,93.87"
       style="fill:none;stroke:#000000;stroke-width:11"
       id="path8011"
       inkscape:connector-curvature="0" /><path
       d="m 183.93,73.829 -9.84,43.811"
       style="fill:none;stroke:#000000;stroke-width:11"
       id="path10922"
       inkscape:connector-curvature="0" /><path
       d="M 175.09,116.38 C 154.92,233.39 141.47,232.14 141.47,232.14"
       style="fill:none;stroke:#000000;stroke-width:9.52420044"
       id="path11893"
       inkscape:connector-curvature="0" /><path
       sodipodi:cx="91.071426"
       sodipodi:cy="351.64789"
       transform="translate(52.206,-120.25)"
       d="m 92.857141,351.64789 c 0,0.78898 -0.799492,1.42857 -1.785715,1.42857 -0.986222,0 -1.785714,-0.63959 -1.785714,-1.42857 0,-0.78898 0.799492,-1.42857 1.785714,-1.42857 0.986223,0 1.785715,0.63959 1.785715,1.42857 z"
       sodipodi:type="arc"
       style="opacity:0.95583999;fill-opacity:0;stroke:#000000;stroke-width:11;stroke-opacity:0.97492"
       sodipodi:ry="1.4285715"
       sodipodi:rx="1.7857143"
       id="path12864" /><path
       sodipodi:cx="91.071426"
       sodipodi:cy="351.64789"
       transform="translate(363.59,-119.4)"
       d="m 92.857141,351.64789 c 0,0.78898 -0.799492,1.42857 -1.785715,1.42857 -0.986222,0 -1.785714,-0.63959 -1.785714,-1.42857 0,-0.78898 0.799492,-1.42857 1.785714,-1.42857 0.986223,0 1.785715,0.63959 1.785715,1.42857 z"
       sodipodi:type="arc"
       style="opacity:0.95583999;fill-opacity:0;stroke:#000000;stroke-width:11;stroke-opacity:0.97492"
       sodipodi:ry="1.4285715"
       sodipodi:rx="1.7857143"
       id="path12866" /><path
       d="m 354.74,113.15 9.22,-44.218"
       style="fill:none;stroke:#000000;stroke-width:8.35159969"
       id="path14812"
       inkscape:connector-curvature="0" /><path
       d="M 183.8,74.088 C 188.57,55.633 158.6,54.147 158.6,54.147"
       inkscape:transform-center-y="-0.42861714"
       style="fill:none;stroke:#000000;stroke-width:9"
       inkscape:transform-center-x="-28.162885"
       id="path15785"
       inkscape:connector-curvature="0" /><path
       d="m 372.21,70.685 c -42.15,-5.714 -47.86,-12.143 -47.86,-12.143 0,0 -8.57,-2.857 1.43,-5 10,-2.143 59.28,3.572 64.28,7.143 5,3.571 -17.85,10 -17.85,10 z"
       style="fill:#000000;fill-rule:evenodd;stroke:#000000;stroke-width:1px"
       id="path16756"
       inkscape:connector-curvature="0" /><path
       sodipodi:cx="142.85715"
       sodipodi:cy="358.43362"
       transform="translate(17.206,-304.53)"
       d="m 146.42858,358.43362 c 0,1.38072 -1.59899,2.5 -3.57143,2.5 -1.97245,0 -3.57143,-1.11928 -3.57143,-2.5 0,-1.38071 1.59898,-2.5 3.57143,-2.5 1.97244,0 3.57143,1.11929 3.57143,2.5 z"
       sodipodi:type="arc"
       style="opacity:0.95583999;fill:#000000;stroke:#000000;stroke-width:9;stroke-opacity:0.97492"
       sodipodi:ry="2.5"
       sodipodi:rx="3.5714285"
       id="path17727" /><path
       d="m 325.78,238.65 -15.72,29.28"
       style="fill:none;stroke:#000000;stroke-width:7"
       id="path17729"
       inkscape:connector-curvature="0" /><rect
       x="298.51001"
       y="267.67001"
       width="19.903999"
       height="2.9393001"
       style="fill:#000000;stroke:#000000;stroke-width:4.31820011;stroke-linecap:round;stroke-linejoin:bevel;stroke-opacity:0.97492"
       id="rect20640" /><path
       d="m 38.999999,37.243242 5.99828,13.762662 -8.876731,-12.107596 2.785411,14.752346 -5.95998,-13.779291 -0.567131,15.002286 -2.74437,-14.760036 -3.891234,14.499948 0.608854,-15.00065 -7.020215,13.270523 3.931548,-14.48907 L 13.467258,49.770023 20.524355,36.519075 8.441495,45.429447 18.270269,34.08108 4.5076078,40.079361 16.615203,31.202629 1.8628575,33.98804 15.642149,28.028061 0.63986294,27.46093 15.399899,24.71656 0.89995019,20.825325 15.900601,21.434179 2.6300774,14.413964 17.119148,18.345512 5.7434887,8.548339 18.994436,15.605436 10.084065,3.5225764 21.432431,13.351351 15.434151,-0.41131084 24.310882,11.696285 21.525471,-3.0560611 27.485451,10.72323 28.052582,-4.2790557 30.796952,10.48098 34.688186,-4.0189684 34.079332,10.981682 41.099547,-2.2888412 37.168,12.200229 46.965173,0.82457011 39.908075,14.075518 51.990935,5.1651461 42.162161,16.513513 l 13.762661,-5.998281 -12.107595,8.876732 14.752346,-2.785411 -13.779292,5.95998 15.002286,0.56713 -14.760036,2.74437 14.499949,3.891235 -15.000651,-0.608854 13.270524,7.020215 -14.489071,-3.931548 11.37566,9.797173 -13.250948,-7.057097 8.910372,12.08286 z"
       inkscape:flatsided="false"
       inkscape:rounded="0"
       sodipodi:cx="30.216215"
       sodipodi:cy="25.297297"
       inkscape:randomized="0"
       transform="matrix(0.47474,0,0,0.47474,313.02,222.8)"
       sodipodi:arg2="1.0489733"
       sodipodi:arg1="0.93677361"
       sodipodi:r2="29.655386"
       sodipodi:r1="14.827693"
       inkscape:transform-center-x="-7.027027"
       sodipodi:sides="28"
       sodipodi:type="star"
       style="fill:#000000;stroke:#0e0707;stroke-width:35.63700104;stroke-linejoin:bevel"
       id="path2165" /><path
       d="m 326.28,218.18 127.58,8.83"
       style="fill:none;stroke:#000000;stroke-width:1.10899997;stroke-dasharray:1.10900713, 1.10900713"
       id="path5195"
       inkscape:connector-curvature="0" /><path
       d="M 458.51,238.76 327.89,251.15"
       style="fill:none;stroke:#000000;stroke-width:1.21679997;stroke-dasharray:1.21683467, 1.21683467"
       id="path6166"
       inkscape:connector-curvature="0" /><path
       sodipodi:sides="50"
       sodipodi:r2="6.9140282"
       inkscape:rounded="0"
       sodipodi:cx="88.128647"
       sodipodi:cy="415.54218"
       inkscape:randomized="0"
       sodipodi:arg1="0.71620188"
       sodipodi:arg2="0.77903374"
       transform="matrix(1.0517,0,0,1.0889,50.905,-220.23)"
       inkscape:flatsided="false"
       sodipodi:r1="86.425354"
       d="m 153.3197,472.28254 -60.271081,-51.88262 52.645581,59.60581 -53.293213,-59.02748 44.759863,65.73404 -45.474872,-65.24144 36.168262,70.82561 -36.939373,-70.42651 27.006253,74.80021 -27.821304,-74.5009 17.418354,77.59517 -18.264491,-77.40037 7.555751,79.1664 -8.419631,-79.07919 -2.42601,79.48914 1.558012,-79.51089 L 75.152289,500.98781 86.663373,422.29915 64.545434,498.68767 85.828053,422.06223 54.310501,495.07629 85.029015,421.72247 44.6089,490.2106 84.27886,421.28525 35.593631,484.16735 83.589418,420.75746 27.406871,477.04183 82.971563,420.14742 20.177729,468.94643 82.435038,419.46475 14.020214,460.00882 81.988305,418.72022 9.0314338,450.36993 81.638408,417.92557 5.2900635,440.1818 81.390867,417.09334 2.8551071,429.60508 81.249584,416.23664 1.7649654,418.80658 81.216788,415.36899 2.0368305,407.9566 81.292996,414.50407 3.666415,397.22625 81.477007,413.65552 6.6280193,386.78475 81.765918,412.83672 10.874937,376.79677 82.155173,412.0606 16.340192,367.41984 82.638633,411.33937 22.937594,358.80182 83.208674,410.68443 30.563098,351.07862 83.856306,410.1061 39.096445,344.37206 84.571316,409.6135 48.403059,338.7879 l 36.939367,70.4265 -27.006257,-74.80021 27.821308,74.5009 -17.418353,-77.59517 18.264491,77.40037 -7.555751,-79.1664 8.419631,79.07919 2.42601,-79.48914 -1.558012,79.51089 L 101.105,330.09654 89.593921,408.7852 111.71186,332.39668 90.429241,409.02213 121.94679,336.00806 91.228279,409.36188 131.64839,340.87375 91.978434,409.7991 140.66366,346.91701 92.667876,410.32689 148.85042,354.04252 93.285731,410.93693 156.07956,362.13792 93.822256,411.6196 l 68.414824,-40.54406 -67.968091,41.28859 72.956871,-31.64971 -72.606974,32.44436 76.348344,-22.25623 -76.100803,23.08846 78.535763,-12.51174 -78.39448,13.36844 79.48462,-2.56994 -79.451824,3.43759 79.179954,7.41239 L 94.964297,416.58028 172.59088,433.8581 94.780287,417.42883 169.62927,444.2996 94.491376,418.24763 165.38236,454.28758 94.102121,419.02376 159.9171,463.66452 93.61866,419.74498 z"
       sodipodi:type="star"
       style="fill:#000000;stroke-width:0"
       id="path4193" /></g></svg>